<?xml version="1.0" encoding="UTF-8" standalone="no"?>
<svg
   xmlns:dc="http://purl.org/dc/elements/1.1/"
   xmlns:cc="http://creativecommons.org/ns#"
   xmlns:rdf="http://www.w3.org/1999/02/22-rdf-syntax-ns#"
   xmlns:svg="http://www.w3.org/2000/svg"
   xmlns="http://www.w3.org/2000/svg"
   height="306.83282"
   width="1245.8204"
   version="1.1"
   viewBox="0 0 1245.8204 306.83283"
   data-name="Layer 1"
   id="Layer_1">
  <metadata
     id="metadata86">
    <rdf:RDF>
      <cc:Work
         rdf:about="">
        <dc:format>image/svg+xml</dc:format>
        <dc:type
           rdf:resource="http://purl.org/dc/dcmitype/StillImage" />
        <dc:title>Artboard 63</dc:title>
      </cc:Work>
    </rdf:RDF>
  </metadata>
  <defs
     id="defs51">
    <marker
       style="overflow:visible"
       id="Arrow2Lstart"
       refX="0"
       refY="0"
       orient="auto">
      <path
         transform="matrix(1.1,0,0,1.1,1.1,0)"
         d="M 8.7185878,4.0337352 -2.2072895,0.01601326 8.7185884,-4.0017078 c -1.7454984,2.3720609 -1.7354408,5.6174519 -6e-7,8.035443 z"
         style="fill:#000000;fill-opacity:1;fill-rule:evenodd;stroke:#000000;stroke-width:0.625;stroke-linejoin:round;stroke-opacity:1"
         id="path4710" />
    </marker>
    <style
       id="style49">.cls-1{fill:#130754;}.cls-2{fill:#ffca00;}.cls-3{fill:#e70488;}</style>
  </defs>
  <title
     id="title53">Artboard 63</title>
  <rect
     style="fill:#130754"
     id="rect67"
     height="50.02"
     width="24.09"
     y="61.997509"
     x="77.222679"
     class="cls-1" />
  <rect
     style="fill:#130754"
     id="rect69"
     height="50.02"
     width="24.09"
     y="164.74751"
     x="77.222679"
     class="cls-1" />
  <rect
     style="fill:#ffca00"
     id="rect71"
     height="23.6"
     width="24.09"
     y="126.61751"
     x="77.222679"
     class="cls-2" />
  <rect
     style="fill:#130754"
     id="rect73"
     height="166.27"
     width="24.09"
     y="103.1275"
     x="38.532684"
     class="cls-1" />
  <rect
     style="fill:#130754"
     id="rect75"
     height="50.02"
     width="24.09"
     y="206.01752"
     x="115.12268"
     class="cls-1" />
  <rect
     style="fill:#130754"
     id="rect77"
     height="50.02"
     width="24.09"
     y="103.18752"
     x="115.12268"
     class="cls-1" />
  <rect
     style="fill:#e70488"
     id="rect79"
     height="23.6"
     width="24.09"
     y="167.80751"
     x="115.12268"
     class="cls-3" />
  <rect
     style="fill:#130754"
     id="rect81"
     height="166.27"
     width="24.09"
     y="48.967514"
     x="153.0127"
     class="cls-1" />
  <g
     id="text90"
     style="font-style:normal;font-variant:normal;font-weight:normal;font-stretch:normal;font-size:192px;line-height:1.25;font-family:MrEavesXLModOT-Bold;-inkscape-font-specification:MrEavesXLModOT-Bold;letter-spacing:0px;word-spacing:0px;fill:#130754;fill-opacity:1;stroke:none"
     aria-label="datareader">
    <path
       id="path6075"
       style="font-size:176px;fill:#130754;fill-opacity:1"
       d="m 423.52096,192.19113 h -18.48 l -0.704,-12.144 q -4.576,6.864 -12.32,10.56 -7.744,3.696 -16.016,3.696 -15.488,0 -25.696,-11.44 -10.032,-11.44 -10.032,-28.688 0,-17.248 10.032,-28.688 10.208,-11.44 25.696,-11.44 17.248,0 27.104,12.496 V 86.591132 h 20.416 z m -25.696,-19.712 q 6.16,-6.864 6.16,-18.304 0,-11.44 -6.16,-18.128 -6.16,-6.864 -15.488,-6.864 -9.328,0 -15.488,6.864 -6.16,6.688 -6.16,18.128 0,11.44 6.16,18.304 6.16,6.688 15.488,6.688 9.328,0 15.488,-6.688 z" />
    <path
       id="path6077"
       style="font-size:176px;fill:#130754;fill-opacity:1"
       d="m 522.52096,192.19113 h -18.48 l -0.704,-12.144 q -4.576,6.864 -12.32,10.56 -7.744,3.696 -16.016,3.696 -15.488,0 -25.696,-11.44 -10.032,-11.44 -10.032,-28.688 0,-17.248 10.032,-28.688 10.208,-11.44 25.696,-11.44 8.272,0 16.016,3.696 7.744,3.696 12.32,10.56 l 0.704,-12.144 h 18.48 z m -25.696,-19.712 q 6.16,-6.864 6.16,-18.304 0,-11.44 -6.16,-18.128 -6.16,-6.864 -15.488,-6.864 -9.328,0 -15.488,6.864 -6.16,6.688 -6.16,18.128 0,11.44 6.16,18.304 6.16,6.688 15.488,6.688 9.328,0 15.488,-6.688 z" />
    <path
       id="path6079"
       style="font-size:176px;fill:#130754;fill-opacity:1"
       d="m 587.72896,129.53513 h -16.016 v 62.656 h -20.416 v -62.656 h -16.016 v -13.376 h 16.016 V 95.391132 h 20.416 v 20.767998 h 16.016 z" />
    <path
       id="path6081"
       style="font-size:176px;fill:#130754;fill-opacity:1"
       d="m 679.27096,192.19113 h -18.48 l -0.704,-12.144 q -4.576,6.864 -12.32,10.56 -7.744,3.696 -16.016,3.696 -15.488,0 -25.696,-11.44 -10.032,-11.44 -10.032,-28.688 0,-17.248 10.032,-28.688 10.208,-11.44 25.696,-11.44 8.272,0 16.016,3.696 7.744,3.696 12.32,10.56 l 0.704,-12.144 h 18.48 z m -25.696,-19.712 q 6.16,-6.864 6.16,-18.304 0,-11.44 -6.16,-18.128 -6.16,-6.864 -15.488,-6.864 -9.328,0 -15.488,6.864 -6.16,6.688 -6.16,18.128 0,11.44 6.16,18.304 6.16,6.688 15.488,6.688 9.328,0 15.488,-6.688 z" />
    <path
       id="path6083"
       style="font-size:176px;fill:#130754;fill-opacity:1"
       d="m 747.29496,133.93513 q -10.736,-2.64 -19.184,2.288 -8.272,4.928 -8.272,14.432 v 41.536 h -20.416 v -76.032 h 18.656 l 0.88,13.904 q 3.344,-6.864 11.088,-11.44 7.92,-4.576 17.248,-4.576 z" />
    <path
       id="path6085"
       style="font-size:176px;fill:#130754;fill-opacity:1"
       d="m 826.82771,144.14313 q 0,5.984 -1.232,10.56 h -50.688 q -0.528,10.208 5.632,17.6 6.16,7.216 20.24,7.216 6.336,0 13.2,-2.464 7.04,-2.64 11.44,-6.512 v 14.784 q -11.44,8.976 -30.976,8.976 -17.424,0 -28.688,-11.44 -11.088,-11.44 -11.088,-29.216 0,-17.6 11.44,-28.512 11.44,-11.088 26.928,-11.088 14.608,0 24.112,8.448 9.68,8.272 9.68,21.648 z m -18.48,-0.352 q 1.408,-7.04 -2.816,-11.792 -4.224,-4.928 -11.968,-4.928 -6.864,0 -11.792,4.224 -4.752,4.048 -5.984,12.496 z" />
    <path
       id="path6087"
       style="font-size:176px;fill:#130754;fill-opacity:1"
       d="m 922.64596,192.19113 h -18.48 l -0.704,-12.144 q -4.576,6.864 -12.32,10.56 -7.744,3.696 -16.016,3.696 -15.488,0 -25.696,-11.44 -10.032,-11.44 -10.032,-28.688 0,-17.248 10.032,-28.688 10.208,-11.44 25.696,-11.44 8.272,0 16.016,3.696 7.744,3.696 12.32,10.56 l 0.704,-12.144 h 18.48 z m -25.696,-19.712 q 6.16,-6.864 6.16,-18.304 0,-11.44 -6.16,-18.128 -6.16,-6.864 -15.488,-6.864 -9.328,0 -15.488,6.864 -6.16,6.688 -6.16,18.128 0,11.44 6.16,18.304 6.16,6.688 15.488,6.688 9.328,0 15.488,-6.688 z" />
    <path
       id="path6089"
       style="font-size:176px;fill:#130754;fill-opacity:1"
       d="m 1021.646,192.19113 h -18.48 l -0.704,-12.144 q -4.57604,6.864 -12.32004,10.56 -7.744,3.696 -16.016,3.696 -15.488,0 -25.696,-11.44 -10.032,-11.44 -10.032,-28.688 0,-17.248 10.032,-28.688 10.208,-11.44 25.696,-11.44 17.248,0 27.10404,12.496 V 86.591132 h 20.416 z m -25.69604,-19.712 q 6.16004,-6.864 6.16004,-18.304 0,-11.44 -6.16004,-18.128 -6.16,-6.864 -15.488,-6.864 -9.328,0 -15.488,6.864 -6.16,6.688 -6.16,18.128 0,11.44 6.16,18.304 6.16,6.688 15.488,6.688 9.328,0 15.488,-6.688 z" />
    <path
       id="path6091"
       style="font-size:176px;fill:#130754;fill-opacity:1"
       d="m 1109.734,144.14313 q 0,5.984 -1.232,10.56 h -50.688 q -0.528,10.208 5.632,17.6 6.16,7.216 20.24,7.216 6.336,0 13.2,-2.464 7.04,-2.64 11.44,-6.512 v 14.784 q -11.44,8.976 -30.976,8.976 -17.424,0 -28.688,-11.44 -11.088,-11.44 -11.088,-29.216 0,-17.6 11.44,-28.512 11.44,-11.088 26.928,-11.088 14.608,0 24.112,8.448 9.68,8.272 9.68,21.648 z m -18.48,-0.352 q 1.408,-7.04 -2.816,-11.792 -4.224,-4.928 -11.968,-4.928 -6.864,0 -11.792,4.224 -4.752,4.048 -5.984,12.496 z" />
    <path
       id="path6093"
       style="font-size:176px;fill:#130754;fill-opacity:1"
       d="m 1174.5762,133.93513 q -10.736,-2.64 -19.184,2.288 -8.272,4.928 -8.272,14.432 v 41.536 h -20.416 v -76.032 h 18.656 l 0.88,13.904 q 3.344,-6.864 11.088,-11.44 7.92,-4.576 17.248,-4.576 z" />
  </g>
  <rect
     style="fill:#130754;stroke-width:0.78233469"
     id="rect81-0"
     height="101.76515"
     width="24.09"
     y="9.5367432e-07"
     x="191.03293"
     class="cls-1" />
  <rect
     transform="rotate(-90)"
     style="fill:#130754;stroke-width:1.12661016"
     id="rect81-0-2"
     height="211.0383"
     width="24.09"
     y="4.0846386"
     x="-24.09"
     class="cls-1" />
  <rect
     transform="scale(-1)"
     style="fill:#130754;stroke-width:1.35845089"
     id="rect81-0-2-8"
     height="306.83282"
     width="24.09"
     y="-306.83282"
     x="-24.09"
     class="cls-1" />
  <rect
     transform="rotate(90)"
     style="fill:#130754;stroke-width:1.1278944"
     id="rect81-0-2-8-7"
     height="211.51968"
     width="24.09"
     y="-215.60431"
     x="282.74283"
     class="cls-1" />
  <rect
     style="fill:#130754;stroke-width:0.82203484"
     id="rect81-0-8"
     height="112.3555"
     width="24.09"
     y="194.47729"
     x="191.51431"
     class="cls-1" />
  <g
     id="g6028"
     transform="matrix(0.01549279,0,0,-0.02159872,201.99555,219.0468)"
     style="fill:#130754;fill-opacity:1;stroke:none">
    <path
       style="fill:#130754;fill-opacity:1"
       id="path6026"
       d="m 3310,5925 c -36,-8 -92,-28 -125,-45 -33,-16 -352,-240 -710,-498 C 2118,5125 1465,4656 1025,4341 489,3957 203,3745 159,3701 -34,3507 -51,3203 119,2977 167,2912 3003,590 3097,538 c 216,-119 480,-82 655,93 111,111 164,239 162,394 -1,133 -35,235 -113,338 -22,29 -331,289 -814,685 l -778,637 5078,5 -8.2059,20.7596 59,22 c 241,91 391,319 372,563 -18,233 -162,415 -393,498 -45,16 0,0 -45.7941,6.2404 l -5084,5 794,570 c 445,319 818,594 849,625 176,177 206,470 70,678 -74,114 -185,200 -306,237 -72,23 -207,28 -284,10 z" />
  </g>
</svg>
